<svg width="96" height="96" viewBox="0 0 96 96" fill="none" xmlns="http://www.w3.org/2000/svg">
<path d="M49.7293 22.364H46.4333C38.5987 22.364 32.188 28.7747 32.188 36.6093V59.1867C32.188 67.0213 38.5987 73.432 46.4333 73.432H49.7293C57.564 73.432 63.9747 67.0213 63.9747 59.1867V36.6093C63.9747 28.7747 57.564 22.364 49.7293 22.364Z" fill="#D0CFCE"/>
<path d="M48.0813 29.4827C47.3485 29.4848 46.6463 29.7768 46.1282 30.2949C45.6101 30.8131 45.318 31.5152 45.3159 32.248V40.0267C45.3184 40.7592 45.6106 41.461 46.1287 41.9789C46.6468 42.4967 47.3487 42.7886 48.0813 42.7907C48.8138 42.7886 49.5157 42.4967 50.0338 41.9789C50.5519 41.461 50.8441 40.7592 50.8466 40.0267V32.248C50.8445 31.5152 50.5525 30.8131 50.0343 30.2949C49.5162 29.7768 48.814 29.4848 48.0813 29.4827Z" fill="#3F3F3F"/>
<path d="M46.8479 24.236C50.8839 25.968 54.7199 28.4534 55.1666 34.7334C55.6839 42.0067 52.9932 55.6254 52.1266 62.5427C51.5226 67.3787 49.1306 69.6187 45.9532 72.156C44.3532 73.4374 52.9759 73.2814 56.5266 71.2054C59.5746 69.424 62.5266 66.3667 62.5626 67.3334L62.9932 32.9267C62.9932 32.9267 61.7439 23.6774 51.5719 23.6734C51.5719 23.6734 41.3693 23.1494 46.8479 24.236Z" fill="#9B9B9A"/>
<path d="M51.7733 72.668H44.3907C37.764 72.668 32.344 67.248 32.344 60.6227V35.1733C32.344 28.548 37.7653 23.128 44.3907 23.128H51.772C58.3987 23.128 63.8187 28.548 63.8187 35.1733V60.6227C63.8187 67.248 58.3973 72.668 51.772 72.668H51.7733Z" stroke="black" stroke-width="2" stroke-miterlimit="10" stroke-linecap="round" stroke-linejoin="round"/>
<path d="M55.1079 80.0213L48.1532 86.976M41.1426 80.0213L48.0972 86.976M48.1932 42.8733H47.9692C47.2519 42.8715 46.5645 42.5858 46.0573 42.0786C45.5501 41.5714 45.2643 40.884 45.2626 40.1666V32.1066C45.2626 30.6186 46.4812 29.4013 47.9692 29.4013H48.1932C49.6812 29.4013 50.8999 30.6186 50.8999 32.108V40.1693C50.8999 41.6573 49.6812 42.876 48.1932 42.876V42.8733Z" stroke="white" stroke-width="2" stroke-miterlimit="10" stroke-linecap="round" stroke-linejoin="round"/>
</svg>
